PathFileType	4	(X/Y/Z)	2014001\dynamic\2014001_C1_03.trc
DataRate	CameraRate	NumFrames	NumMarkers	Units	OrigDataRate	OrigDataStartFrame	OrigNumFrames
100.000000	100.000000	4	52	mm	100.000000	245	490
Frame#	Time	L_IAS			L_IPS			R_IPS			R_IAS			L_FTC			L_FLE			L_FME			L_FAX			L_TTC			L_FAL			L_TAM			L_FCC			L_FM1			L_FM2			L_FM5			R_FTC			R_FLE			R_FME			R_FAX			R_TTC			R_FAL			R_TAM			R_FCC			R_FM1			R_FM2			R_FM5			CV7			TV10			SXS			SJN			L_SIA			L_SRS			L_SAA			L_SAE			L_HLE			L_HME			L_UOA			L_RSP			L_UHE			L_HM2			L_HM5			R_SIA			R_SRS			R_SAA			R_SAE			R_HLE			R_HME			R_UOA			R_RSP			R_UHE			R_HM2			R_HM5			
		X1	Y1	Z1	X2	Y2	Z2	X3	Y3	Z3	X4	Y4	Z4	X5	Y5	Z5	X6	Y6	Z6	X7	Y7	Z7	X8	Y8	Z8	X9	Y9	Z9	X10	Y10	Z10	X11	Y11	Z11	X12	Y12	Z12	X13	Y13	Z13	X14	Y14	Z14	X15	Y15	Z15	X16	Y16	Z16	X17	Y17	Z17	X18	Y18	Z18	X19	Y19	Z19	X20	Y20	Z20	X21	Y21	Z21	X22	Y22	Z22	X23	Y23	Z23	X24	Y24	Z24	X25	Y25	Z25	X26	Y26	Z26	X27	Y27	Z27	X28	Y28	Z28	X29	Y29	Z29	X30	Y30	Z30	X31	Y31	Z31	X32	Y32	Z32	X33	Y33	Z33	X34	Y34	Z34	X35	Y35	Z35	X36	Y36	Z36	X37	Y37	Z37	X38	Y38	Z38	X39	Y39	Z39	X40	Y40	Z40	X41	Y41	Z41	X42	Y42	Z42	X43	Y43	Z43	X44	Y44	Z44	X45	Y45	Z45	X46	Y46	Z46	X47	Y47	Z47	X48	Y48	Z48	X49	Y49	Z49	X50	Y50	Z50	X51	Y51	Z51	X52	Y52	Z52	

246	2.45	323.5511169433595	885.7861938476567	714.6564941406252	226.377899169922	920.3440551757817	545.456970214844	136.7985534667969	913.8999633789067	555.3093872070315	81.89766693115237	882.381958007813	738.7280883789065	375.0289611816407	802.2805786132817	632.3549804687502	389.5322570800784	456.0561218261721	664.2084960937502	278.0491943359376	423.9941406250002	706.187927246094	390.0666503906252	418.213317871094	619.900085449219	361.4852600097657	358.2159423828126	666.800720214844	335.2945556640626	194.5083770751954	393.672058105469	257.2114868164064	175.707015991211	435.5119934082034	276.3944702148439	191.614974975586	348.1264953613282	289.4342346191407	63.23171234130862	469.2080993652346	348.4367980957032	66.65888214111331	465.2450256347659	375.5768432617189	90.8086853027344	414.1265869140627	22.49057006835938	783.4194946289067	650.2659301757815	86.24649047851565	435.978942871094	672.6164550781252	206.3792114257814	434.8870849609377	673.3839111328127	87.13820648193362	368.1911926269532	653.9832763671877	145.2743835449219	366.675750732422	711.485534667969	158.3974304199219	63.90320587158206	604.248474121094	243.7433471679689	86.98677062988284	637.5750732421877	215.0132904052736	24.20165061950685	559.609313964844	238.5380706787111	23.66674613952637	744.9504394531252	174.279037475586	37.0780487060547	753.4959716796877	124.7610626220704	24.31758308410646	695.198669433594	176.9043426513672	1385.27734375	569.0552368164065	176.7707824707032	1148.74853515625	508.9253845214846	200.8397674560548	1158.65576171875	736.685729980469	192.7862854003907	1319.471923828125	693.295349121094	272.0029907226564	1191.786865234375	492.9385070800784	264.9110107421876	1322.88623046875	515.5390625000002	378.8845214843751	1318.646850585938	584.2939453125002	366.2294921875001	1329.773193359375	625.0324707031252	442.0712890625002	1044.512329101563	591.3339843750002	364.3484497070314	1010.626342773438	579.650573730469	412.1751708984377	1008.011108398438	563.7443847656252	421.1075134277346	830.9717407226567	721.009948730469	480.1061706542971	820.017700195313	667.042419433594	434.6242980957034	756.0967407226565	762.9251098632815	481.9769287109377	741.2512817382815	673.9744873046877	61.06207656860354	1191.787719726563	513.910827636719	84.5845642089844	1317.268310546875	535.1087036132815	-8.884719848632816	1311.176147460938	626.114685058594	8.820244789123539	1317.157836914063	670.6297607421877	-67.65969085693362	1011.846008300782	648.4053955078127	5.811672687530519	993.332885742188	618.0324707031252	-40.03425979614259	984.250854492188	619.1101074218752	-22.17049980163575	823.1699829101567	778.013549804688	-87.67424011230472	810.3811645507817	728.9111938476565	-35.24259567260744	741.013610839844	822.6040039062505	-84.90082550048831	731.3475341796877	732.818054199219	
247	2.46	322.8600158691407	886.0400390625005	716.9824218750002	225.9217681884767	920.1411132812505	547.6072998046877	136.3635253906251	913.6818847656255	557.361755371094	81.27416992187503	882.3770141601567	740.8259277343752	374.6044921875001	802.4160766601567	635.3685302734377	388.9317321777346	456.1678161621096	669.7744750976565	277.1856079101564	424.5106506347659	711.4161376953127	389.6435241699221	418.032165527344	625.671325683594	360.8293457031251	358.4226379394532	672.8616943359377	335.9737854003907	192.6343231201173	400.7872009277346	257.6528930664064	174.115951538086	442.3857727050784	277.5002746582032	188.5684661865235	354.7351684570314	290.9233703613282	62.98164367675784	479.0330200195315	349.8628540039064	66.87165832519534	475.1553344726565	376.9226989746095	90.10401153564456	423.6509704589846	22.09950637817384	783.0954589843755	652.4237060546877	86.00691223144534	435.8192443847659	673.5163574218752	206.087615966797	434.7623291015627	674.3659667968752	86.94212341308597	368.0664062500001	654.6872558593752	144.9907836914063	366.4713134765626	712.1851806640627	158.4192657470704	63.91277694702151	604.2644653320315	243.7642517089845	86.97535705566409	637.6755371093752	215.0141143798829	24.23870658874513	559.574157714844	238.5184020996095	23.70817947387696	744.995300292969	174.2494201660157	37.03216552734376	753.5406494140627	124.7281723022462	24.30188751220705	695.1858520507815	176.3827056884766	1385.199584960938	570.9902954101565	176.2710571289063	1148.655151367188	510.873229980469	200.1992034912111	1158.602905273438	738.6547851562502	192.1823577880861	1319.39599609375	695.2425537109377	271.502655029297	1191.655517578125	494.9684143066409	264.4178466796876	1322.7724609375	517.5318603515627	378.3390502929689	1318.55908203125	586.3492431640627	365.6911010742189	1329.669555664063	627.066833496094	441.5382995605471	1044.540405273438	593.1076660156252	363.8024902343751	1010.664855957032	581.396911621094	411.5643005371096	1008.3017578125	565.417907714844	421.444763183594	829.6206054687505	720.554138183594	480.3069458007815	819.4685058593755	666.3503417968752	435.2937316894534	754.264831542969	761.7049560546877	482.4100036621096	740.655944824219	672.3321533203127	60.62214279174808	1191.716918945313	515.6505126953127	84.10324859619143	1317.185668945313	536.943786621094	-9.451807975769047	1311.063598632813	627.8577880859377	8.177983283996586	1317.02880859375	672.416198730469	-67.88477325439456	1011.6181640625	649.5721435546877	5.590028285980226	993.325317382813	618.9863891601565	-40.24516677856447	984.245239257813	620.0494384765627	-22.15568161010743	822.2077026367192	778.4187622070317	-87.70609283447268	809.7359008789067	729.0421142578127	-35.14854049682619	739.904968261719	822.2197265625005	-84.91120147705081	730.7064208984377	732.4358520507815	
248	2.47	322.1684570312501	886.3001098632817	719.2874755859377	225.4806518554689	919.9296264648442	549.745544433594	135.9419250488282	913.4636840820317	559.3609008789065	80.6662521362305	882.3880004882817	742.9067382812502	374.1991577148439	802.5787963867192	638.3391723632815	388.3384399414065	456.3166503906252	675.3087158203127	276.3529052734376	425.0500488281252	716.6439208984377	389.2295837402346	417.8785705566409	631.4212646484377	360.210662841797	358.6638183593751	678.9314575195315	336.7070312500001	190.6436462402344	408.0574645996096	258.186737060547	172.4239044189454	449.4524230957034	278.6692810058595	185.3778686523438	361.5224609375001	292.4156799316407	62.66860580444339	488.9288635253909	351.2748107910157	66.99762725830081	485.1457824707034	378.3125915527345	89.3418884277344	433.3081054687502	21.75371170043946	782.7636108398442	654.6577148437502	85.77326202392581	435.6543273925784	674.4324951171877	205.8137969970704	434.627624511719	675.4049072265627	86.76385498046878	367.9524536132814	655.3963012695315	144.7057037353516	366.2715148925782	712.9014892578127	158.4431915283204	63.92507934570315	604.2820434570315	243.8030548095704	86.93597412109378	637.794860839844	215.0244140625001	24.27700996398927	559.5465087890627	238.4964752197267	23.74901580810548	745.0390625000002	174.2204742431641	36.9862518310547	753.5844726562502	124.6942367553712	24.28584289550783	695.1717529296877	175.8836059570313	1385.11962890625	572.9160156250002	175.7919158935547	1148.564453125	512.8030395507815	199.5926971435548	1158.54541015625	740.6069335937502	191.6135253906251	1319.3154296875	697.177673339844	271.0201110839845	1191.522705078125	496.9802551269534	263.9438781738282	1322.658325195313	519.5044555664065	377.8175354003907	1318.468505859375	588.367614746094	365.1842651367189	1329.566772460938	629.0689086914065	440.9975891113284	1044.566162109375	594.8269653320315	363.2405090332032	1010.704772949219	583.122497558594	410.933044433594	1008.589233398438	567.0585937500002	421.7739868164065	828.3041992187505	720.0706176757815	480.4873046875002	818.945190429688	665.6093750000002	435.9501647949221	752.4630126953127	760.4295043945315	482.8145141601565	740.0941162109377	670.6304931640627	60.20241165161136	1191.647094726563	517.3833618164065	83.64428710937503	1317.102661132813	538.7725830078127	-9.987970352172855	1310.953247070313	629.605163574219	7.569067955017093	1316.90380859375	674.2102661132815	-68.1003341674805	1011.405578613282	650.714294433594	5.37149238586426	993.3347167968755	619.9046630859377	-40.45460510253908	984.2561645507817	620.971130371094	-22.15082168579102	821.242065429688	778.6828002929692	-87.76374053955081	809.0942382812505	729.1030273437502	-35.08483505249025	738.7633056640627	821.7390747070317	-84.96062469482425	730.072448730469	731.9439086914065	
249	2.48	321.4764099121095	886.5646362304692	721.573913574219	225.0559539794923	919.7096557617192	551.8719482421877	135.5350341796876	913.2444458007817	561.3017578125002	80.06526184082034	882.4045410156255	744.958679199219	373.8152770996095	802.765014648438	641.2569580078127	387.7566833496096	456.5021667480471	680.8054809570315	275.556854248047	425.6091918945315	721.863464355469	388.8263854980471	417.7502441406252	637.146179199219	359.6308593750001	358.9402770996095	685.0085449218752	337.4819946289064	188.5355682373047	415.4960937500002	258.8042602539064	170.629135131836	456.7190246582034	279.8807983398439	182.0510711669922	368.501678466797	293.9143676757814	62.27688598632815	498.8990478515627	352.6778564453126	67.02492523193362	495.2091064453127	379.7354125976564	88.51153564453128	443.0800476074221	21.45136070251466	782.4265136718755	656.954284667969	85.5490417480469	435.4833679199221	675.3693847656252	205.5631408691407	434.4821777343752	676.5034179687502	86.60788726806643	367.8462829589845	656.115905761719	144.4239959716797	366.076141357422	713.6472778320315	158.470932006836	63.93960189819339	604.3025512695315	243.8657379150392	86.86128997802737	637.9376220703127	215.0464172363282	24.31699371337892	559.5292968750002	238.4728088378907	23.78725242614747	745.081970214844	174.1927795410157	36.94050216674806	753.6284790039065	124.6602096557618	24.27009963989259	695.1567382812502	175.4074401855469	1385.037841796875	574.8359375000002	175.3336791992188	1148.4775390625	514.715026855469	199.0179290771486	1158.48046875	742.5430297851565	191.0792083740235	1319.228149414063	699.1033935546877	270.5549621582032	1191.389404296875	498.975036621094	263.4898071289064	1322.544189453125	521.4606933593752	377.3199157714845	1318.372680664063	590.353210449219	364.7086486816407	1329.462280273438	631.0430297851565	440.4505920410159	1044.585327148438	596.4893188476565	362.6643981933595	1010.743835449219	584.8242187500002	410.2832031250002	1008.869018554688	568.6614379882815	422.0895690917971	827.0358276367192	719.5776367187502	480.6420898437502	818.4478149414067	664.8320312500002	436.5815734863284	750.7026367187502	759.1082153320315	483.1809082031252	739.5659790039065	668.8909301757815	59.8017272949219	1191.580078125	519.1108398437502	83.20668029785159	1317.021118164063	540.599304199219	-10.49382686614991	1310.845947265625	631.360534667969	6.993585109710697	1316.78271484375	676.0154418945315	-68.3078308105469	1011.209350585938	651.8352661132815	5.15383291244507	993.3588867187505	620.798522949219	-40.66452407836915	984.2824707031255	621.8816528320315	-22.15699768066407	820.2836303710942	778.7982788085942	-87.85025787353518	808.4601440429692	729.101745605469	-35.0519142150879	737.5921020507815	821.1703491210942	-85.05154418945315	729.4495239257815	731.3488769531252	
